
<svg xmlns="http://www.w3.org/2000/svg" version="1.1" xmlns:xlink="http://www.w3.org/1999/xlink" preserveAspectRatio="none" x="0px" y="0px" width="40px" height="40px" viewBox="0 0 200 200">
<defs>
<radialGradient id="Gradient_1" gradientUnits="userSpaceOnUse" cx="0" cy="0" r="103.3875" fx="0" fy="0" gradientTransform="matrix( 1, 0, 0, 1, 102.7,78.3) " spreadMethod="pad">
<stop  offset="0%" stop-color="#F4FF00"/>

<stop  offset="23.137254901960784%" stop-color="#EAF702"/>

<stop  offset="65.09803921568627%" stop-color="#BCD300"/>

<stop  offset="100%" stop-color="#869100"/>
</radialGradient>

<radialGradient id="Gradient_2" gradientUnits="userSpaceOnUse" cx="0" cy="0" r="68" fx="0" fy="0" gradientTransform="matrix( 1, 0, 0, 1, 69,43) " spreadMethod="pad">
<stop  offset="0%" stop-color="#F4FF00"/>

<stop  offset="100%" stop-color="#EAF702" stop-opacity="0"/>
</radialGradient>

<g id="ball_0_Layer1_0_FILL">
<path fill="url(#Gradient_1)" stroke="none" d="
M 174.3 174.25
Q 204.2 144.35 204.2 102.05 204.2 59.8 174.3 29.9 144.35 0 102.1 0 59.8 0 29.9 29.9 0 59.8 0 102.05 0 144.35 29.9 174.25 59.8 204.15 102.1 204.15 144.35 204.15 174.3 174.25 Z"/>
</g>

<g id="glow_0_Layer0_0_FILL">
<path fill="url(#Gradient_2)" stroke="none" d="
M 134 59
Q 134 34.6 114.4 17.3 94.8 0 67 0 39.2 0 19.6 17.3 0 34.6 0 59 0 83.4 19.6 100.7 39.2 118 67 118 94.8 118 114.4 100.7 134 83.4 134 59 Z"/>
</g>

<g id="FL_49_0_Layer1_0_FILL">
<path fill="#E4FF7C" stroke="none" d="
M 119.6 58.05
L 101.55 58.05 101.55 3.1 55.5 3.1 0 43.3 0 79.05 74.55 79.05 74.55 96.4 101.55 96.4 101.55 79.05 119.6 79.05 119.6 58.05
M 68.8 24.7
L 74.55 24.7 74.55 58.05 25.4 58.05 25.4 54.35 68.8 24.7
M 230.85 8.3
Q 226 4.85 215.15 3.45 204.25 2 182.85 2 158.05 2 147.65 4.1 137.25 6.15 133.15 12 129 17.9 129 32.9 129 45.2 131.6 51.35 134.1 57.45 140.25 60.1 148.9 63.8 175.95 63.8 188.25 63.8 195.15 62.95 202.05 62.15 206.6 60.05 209.45 58.75 212.55 55.25 212.45 67.15 211.45 70.35 210.2 74.2 204.45 75.4 198.65 76.6 181.1 76.6 165.85 76.6 161.8 75.35 159.9 74.75 159.3 73.85 158.65 72.95 158.55 70.35 158.45 69.8 158.4 69.25
L 131.3 69.25
Q 131.3 80.6 132.8 85.35 134.35 90.05 138.75 92.7 143.2 95.45 151.15 96.55 159 97.55 174.3 97.55 207.05 97.55 221.5 94.55 235.45 91.6 238.15 78.95 239.8 71.6 239.8 53.25 239.8 29.15 238.15 20.65 236.45 12.2 230.85 8.3
M 211.35 38.5
Q 210.4 40.35 208.15 41.3 204.45 42.8 181.3 42.8 165.15 42.8 161.35 41.8 158.6 41.1 157.55 39.2 156.55 37.25 156.55 32.95 156.55 26.15 160.8 24.55 165 23 183.35 23 203.25 23 207.7 24.3 210.25 25.05 211.3 26.9 212.25 28.7 212.25 32.75 212.25 36.6 211.35 38.5 Z"/>
</g>

<g id="FL_49_0_Layer0_0_FILL">
<path fill="#000000" stroke="none" d="
M 119.6 56.05
L 101.55 56.05 101.55 1.1 55.5 1.1 0 41.3 0 77.05 74.55 77.05 74.55 94.4 101.55 94.4 101.55 77.05 119.6 77.05 119.6 56.05
M 68.8 22.7
L 74.55 22.7 74.55 56.05 25.4 56.05 25.4 52.35 68.8 22.7
M 230.85 6.3
Q 226 2.85 215.15 1.45 204.25 0 182.85 0 158.05 0 147.65 2.1 137.25 4.15 133.15 10 129 15.9 129 30.9 129 43.2 131.6 49.35 134.1 55.45 140.25 58.1 148.9 61.8 175.95 61.8 188.25 61.8 195.15 60.95 202.05 60.15 206.6 58.05 209.45 56.75 212.55 53.25 212.45 65.15 211.45 68.35 210.2 72.2 204.45 73.4 198.65 74.6 181.1 74.6 165.85 74.6 161.8 73.35 159.9 72.75 159.3 71.85 158.65 70.95 158.55 68.35 158.45 67.8 158.4 67.25
L 131.3 67.25
Q 131.3 78.6 132.8 83.35 134.35 88.05 138.75 90.7 143.2 93.45 151.15 94.55 159 95.55 174.3 95.55 207.05 95.55 221.5 92.55 235.45 89.6 238.15 76.95 239.8 69.6 239.8 51.25 239.8 27.15 238.15 18.65 236.45 10.2 230.85 6.3
M 211.35 36.5
Q 210.4 38.35 208.15 39.3 204.45 40.8 181.3 40.8 165.15 40.8 161.35 39.8 158.6 39.1 157.55 37.2 156.55 35.25 156.55 30.95 156.55 24.15 160.8 22.55 165 21 183.35 21 203.25 21 207.7 22.3 210.25 23.05 211.3 24.9 212.25 26.7 212.25 30.75 212.25 34.6 211.35 36.5 Z"/>
</g>
</defs>

<g transform="matrix( 0.970184326171875, 0, 0, 0.970184326171875, 0.95,0.95) ">
<g transform="matrix( 1, 0, 0, 1, 0,0) ">
<use xlink:href="#ball_0_Layer1_0_FILL"/>
</g>

<g transform="matrix( 1, 0, 0, 1, 35.4,69.1) ">
<g transform="matrix( 1, 0, 0, 1, 0,0) ">
<use xlink:href="#glow_0_Layer0_0_FILL"/>
</g>
</g>
</g>

<g transform="matrix( 0.6790771484375, 0, 0, 0.6790771484375, 17.1,68.4) ">
<g transform="matrix( 1, 0, 0, 1, 0,0) ">
<use xlink:href="#FL_49_0_Layer1_0_FILL"/>
</g>

<g transform="matrix( 1, 0, 0, 1, 0,0) ">
<use xlink:href="#FL_49_0_Layer0_0_FILL"/>
</g>
</g>
</svg>
