
<svg xmlns="http://www.w3.org/2000/svg" version="1.1" xmlns:xlink="http://www.w3.org/1999/xlink" preserveAspectRatio="none" x="0px" y="0px" width="110px" height="110px" viewBox="0 0 110 110">
<defs>
<radialGradient id="Gradient_1" gradientUnits="userSpaceOnUse" cx="0" cy="0" r="51.6875" fx="0" fy="0" gradientTransform="matrix( 1, 0, 0, 1, 64.65,47.65) " spreadMethod="pad">
<stop  offset="0%" stop-color="#F4FF00"/>

<stop  offset="23.137254901960784%" stop-color="#EAF702"/>

<stop  offset="65.09803921568627%" stop-color="#BCD300"/>

<stop  offset="100%" stop-color="#869100"/>
</radialGradient>

<g id="Layer0_0_MEMBER_0_MEMBER_0_MEMBER_0_MEMBER_0_FILL">
<path fill="url(#Gradient_1)" stroke="none" d="
M 100.5 95.6
Q 115.4 80.7 115.4 59.5 115.4 38.4 100.5 23.4 85.45 8.45 64.35 8.45 43.25 8.45 28.3 23.4 13.35 38.35 13.35 59.5 13.35 80.75 28.3 95.6 43.25 110.55 64.35 110.55 85.45 110.55 100.5 95.6 Z"/>
</g>

<g id="Layer0_1_MEMBER_0_MEMBER_0_MEMBER_0_MEMBER_0_FILL">
<path fill="#E4FF7C" stroke="none" d="
M 57.2 44.35
L 41.1 44.35 21.7 58.45 21.7 70.95 47.75 70.95 47.75 77 57.2 77 57.2 70.95 63.55 70.95 63.55 63.6 57.2 63.6 57.2 44.35
M 30.55 63.6
L 30.55 62.3 45.75 51.9 47.75 51.9 47.75 63.6 30.55 63.6
M 97 44.5
Q 93 43.95 85.65 43.95 77.05 43.95 73.35 44.7 69.7 45.45 68.3 47.45 66.8 49.55 66.8 54.8 66.8 58.95 67.75 61.25 68.6 63.35 70.75 64.3 73.9 65.6 83.25 65.6 87.55 65.6 90 65.3 92.5 65 94 64.3 95.05 63.8 96.05 62.6 96.05 66.6 95.7 67.9 95.25 69.25 93.25 69.65 91.25 70.1 85.05 70.1 79.75 70.1 78.3 69.65 77.55 69.4 77.45 69.1 77.25 68.8 77.15 67.9
L 77.1 67.5 67.65 67.5
Q 67.65 71.6 68.15 73.15 68.7 74.8 70.25 75.7 71.75 76.7 74.6 77.05 77.1 77.4 82.7 77.4 94.2 77.4 99.2 76.35 104.05 75.4 105.05 70.9 105.6 68.25 105.6 61.9 105.6 53.65 105.05 50.5 104.45 47.55 102.45 46.2 100.85 44.95 97 44.5
M 95.65 56.75
Q 95.3 57.35 94.55 57.75 93.25 58.25 85.15 58.25 79.4 58.25 78.15 57.9 77.2 57.7 76.8 57 76.45 56.2 76.45 54.8 76.45 52.45 77.95 51.85 79.5 51.3 85.85 51.3 92.7 51.3 94.35 51.8 95.3 52.05 95.65 52.7 95.95 53.3 95.95 54.75 95.95 56.1 95.65 56.75 Z"/>
</g>

<g id="Layer0_1_MEMBER_1_MEMBER_0_MEMBER_0_MEMBER_0_FILL">
<path fill="#000000" stroke="none" d="
M 57.2 43.65
L 41.1 43.65 21.7 57.75 21.7 70.25 47.75 70.25 47.75 76.3 57.2 76.3 57.2 70.25 63.55 70.25 63.55 62.9 57.2 62.9 57.2 43.65
M 30.55 62.9
L 30.55 61.6 45.75 51.2 47.75 51.2 47.75 62.9 30.55 62.9
M 97 43.8
Q 93 43.25 85.65 43.25 77.05 43.25 73.35 44 69.7 44.75 68.3 46.75 66.8 48.85 66.8 54.1 66.8 58.25 67.75 60.55 68.6 62.65 70.75 63.6 73.9 64.9 83.25 64.9 87.55 64.9 90 64.6 92.5 64.3 94 63.6 95.05 63.1 96.05 61.9 96.05 65.9 95.7 67.2 95.25 68.55 93.25 68.95 91.25 69.4 85.05 69.4 79.75 69.4 78.3 68.95 77.55 68.7 77.45 68.4 77.25 68.1 77.15 67.2
L 77.1 66.8 67.65 66.8
Q 67.65 70.9 68.15 72.45 68.7 74.1 70.25 75 71.75 76 74.6 76.35 77.1 76.7 82.7 76.7 94.2 76.7 99.2 75.65 104.05 74.7 105.05 70.2 105.6 67.55 105.6 61.2 105.6 52.95 105.05 49.8 104.45 46.85 102.45 45.5 100.85 44.25 97 43.8
M 95.65 56.05
Q 95.3 56.65 94.55 57.05 93.25 57.55 85.15 57.55 79.4 57.55 78.15 57.2 77.2 57 76.8 56.3 76.45 55.5 76.45 54.1 76.45 51.75 77.95 51.15 79.5 50.6 85.85 50.6 92.7 50.6 94.35 51.1 95.3 51.35 95.65 52 95.95 52.6 95.95 54.05 95.95 55.4 95.65 56.05 Z"/>
</g>
</defs>

<g transform="matrix( 1, 0, 0, 1, -9,-4) ">
<use xlink:href="#Layer0_0_MEMBER_0_MEMBER_0_MEMBER_0_MEMBER_0_FILL"/>
</g>

<g transform="matrix( 1, 0, 0, 1, -9,-4) ">
<use xlink:href="#Layer0_1_MEMBER_0_MEMBER_0_MEMBER_0_MEMBER_0_FILL"/>
</g>

<g transform="matrix( 1, 0, 0, 1, -9,-4) ">
<use xlink:href="#Layer0_1_MEMBER_1_MEMBER_0_MEMBER_0_MEMBER_0_FILL"/>
</g>
</svg>
